<svg xmlns="http://www.w3.org/2000/svg" xmlns:xlink="http://www.w3.org/1999/xlink" fill="#000000" height="480.5" preserveAspectRatio="xMidYMid meet" version="1" viewBox="0.0 -2.8 500.0 480.5" width="500" zoomAndPan="magnify"><g><g fill="#e4e4e2" id="change1_1"><path d="M411.7,443.1c0,6.4-5.2,11.5-11.5,11.5h-80.8c-6.4,0-11.5-5.2-11.5-11.5V323.3c0-19.1-15.5-34.6-34.6-34.6 h-46.2c-19.1,0-34.6,15.5-34.6,34.6v119.8c0,6.4-5.2,11.5-11.5,11.5H99.9c-6.4,0-11.5-5.2-11.5-11.5l0-230.9H65.3l0,230.9 c0,19.1,15.5,34.6,34.6,34.6h80.8c19.1,0,34.6-15.5,34.6-34.6V323.3c0-6.4,5.2-11.5,11.5-11.5h46.2c6.4,0,11.5,5.2,11.5,11.5 v119.8c0,19.1,15.5,34.6,34.6,34.6h80.8c19.1,0,34.6-15.5,34.6-34.6l0-230.9h-23.1L411.7,443.1z" fill="inherit"/><path d="M272.5,8.4c-13.1-11.2-32-11.2-45.1,0L0,203.4l15,17.5l227.5-195c4.4-3.7,10.7-3.7,15,0l227.5,195l15-17.5 L272.5,8.4z" fill="inherit"/></g></g></svg>