<svg xmlns="http://www.w3.org/2000/svg" xmlns:xlink="http://www.w3.org/1999/xlink" fill="#000000" height="53" preserveAspectRatio="xMidYMid meet" version="1" viewBox="4.2 2.0 57.7 53.0" width="57.7" zoomAndPan="magnify"><g><g id="change1_9"><path d="M16.7,48.8c-0.3,0-0.5-0.1-0.7-0.3c-4-3.8-6.4-9-6.9-14.4c0-0.5,0.4-1,0.9-1.1c0.6,0,1,0.4,1.1,0.9 c0.5,5,2.7,9.7,6.3,13.2c0.4,0.4,0.4,1,0,1.4C17.2,48.7,17,48.8,16.7,48.8z" fill="#e4e4e2"/></g><g id="change1_10"><path d="M47,49.1c-0.3,0-0.5-0.1-0.7-0.3c-0.4-0.4-0.4-1,0-1.4c4.3-4,6.7-9.6,6.7-15.4c0-0.4,0-0.7,0-1.1 c0-0.6,0.4-1,0.9-1c0.6,0,1,0.4,1,0.9c0,0.4,0,0.8,0,1.2c0,6.4-2.7,12.5-7.3,16.8C47.5,49,47.2,49.1,47,49.1z" fill="#e4e4e2"/></g><g><g id="change1_5"><path d="M32,42c-5,0-9-4-9-9c0-5,4-9,9-9c5,0,9,4,9,9C41,38,37,42,32,42z M32,26c-3.9,0-7,3.1-7,7 c0,3.9,3.1,7,7,7c3.9,0,7-3.1,7-7C39,29.1,35.9,26,32,26z" fill="#e4e4e2"/></g><g id="change1_11"><path d="M32,55c-4.2,0-8.3-1.1-11.8-3.2c-0.4-0.2-0.6-0.7-0.4-1.2C21.6,45.4,26.5,42,32,42 c5.5,0,10.4,3.4,12.2,8.6c0.2,0.5,0,1-0.4,1.2C40.3,53.9,36.2,55,32,55z M22,50.5C25,52.1,28.5,53,32,53s7-0.9,10-2.5 c-1.8-3.9-5.7-6.5-10-6.5C27.7,44,23.7,46.6,22,50.5z" fill="#e4e4e2"/></g></g><g><g id="change1_13"><path d="M51.4,28c-1.6,0-3.2-0.4-4.7-1.2l-4.8,0.4c-0.4,0-0.7-0.2-0.9-0.5c-0.2-0.3-0.2-0.7,0-1.1l1.7-2.7 c-2-3.3-1.9-7.4,0.2-10.6c1.5-2.3,3.7-3.8,6.4-4.4c2.6-0.6,5.3-0.1,7.6,1.4c2.3,1.5,3.8,3.7,4.4,6.4c0.6,2.6,0.1,5.3-1.4,7.6v0 C57.9,26.3,54.7,28,51.4,28z M46.9,24.8c0.2,0,0.3,0,0.5,0.1c3.7,2.1,8.5,1,10.8-2.6c0,0,0,0,0,0c1.2-1.8,1.6-4,1.1-6.1 c-0.5-2.1-1.7-3.9-3.5-5.1c-1.8-1.2-4-1.6-6.1-1.1c-2.1,0.5-3.9,1.7-5.1,3.5c-1.8,2.8-1.7,6.3,0.1,9c0.2,0.3,0.2,0.8,0,1.1 l-1,1.5L46.9,24.8C46.8,24.8,46.8,24.8,46.9,24.8z" fill="#e4e4e2"/></g><g><g id="change1_1"><path d="M51.5,22.4c-0.6,0-1-0.4-1-1v-0.8c0-1.1,0.7-2.1,1.7-2.4c0.9-0.3,1.6-1.3,1.4-2.5 c-0.2-0.8-0.8-1.5-1.6-1.6c-0.7-0.1-1.3,0-1.8,0.4c-0.5,0.4-0.8,1-0.8,1.7c0,0.6-0.4,1-1,1s-1-0.4-1-1c0-1.3,0.6-2.4,1.5-3.2 c1-0.8,2.2-1.1,3.5-0.8c1.6,0.3,2.8,1.6,3.2,3.2c0.4,2.1-0.7,4.1-2.7,4.8c-0.2,0.1-0.4,0.3-0.4,0.5v0.8 C52.5,21.9,52,22.4,51.5,22.4z" fill="#e4e4e2"/></g><g id="change1_7"><circle cx="51.5" cy="24.2" fill="#e4e4e2" r="0.7"/></g></g></g><g><g id="change1_4"><path d="M12.8,30.7c-2.7,0-5.4-1.4-7-3.8l0,0c-1.2-1.9-1.6-4.1-1.1-6.3c0.5-2.2,1.8-4,3.6-5.3 c1.9-1.2,4.1-1.6,6.3-1.1c2.2,0.5,4,1.8,5.3,3.6c1.7,2.6,1.8,6,0.2,8.7l1.3,2.1c0.2,0.3,0.2,0.7,0,1.1c-0.2,0.3-0.6,0.5-0.9,0.5 l-3.8-0.4C15.4,30.4,14.1,30.7,12.8,30.7z M7.5,25.8c1.8,2.8,5.5,3.7,8.5,2.1c0.2-0.1,0.4-0.1,0.6-0.1l2,0.2L18,27 c-0.2-0.3-0.2-0.8,0-1.1c1.5-2.1,1.5-4.9,0.1-7c-0.9-1.4-2.3-2.4-4-2.8c-1.7-0.4-3.3,0-4.8,0.9C6.4,18.9,5.6,22.8,7.5,25.8 L7.5,25.8z" fill="#e4e4e2"/></g><g><g id="change1_6"><path d="M13.3,26.2c-0.6,0-1-0.4-1-1v-0.6c0-1,0.6-1.8,1.5-2.1c0.6-0.2,1.2-0.9,1-1.8c-0.1-0.6-0.6-1-1.2-1.2 c-0.5-0.1-0.9,0-1.3,0.3c-0.4,0.3-0.6,0.7-0.6,1.2c0,0.6-0.4,1-1,1s-1-0.4-1-1c0-1.1,0.5-2.1,1.3-2.7c0.8-0.7,1.9-0.9,3-0.7 c1.3,0.3,2.4,1.4,2.7,2.7c0.4,1.8-0.6,3.5-2.3,4.1c-0.1,0-0.2,0.1-0.2,0.3v0.6C14.3,25.7,13.8,26.2,13.3,26.2z" fill="#e4e4e2"/></g><g id="change1_8"><circle cx="13.3" cy="27.4" fill="#e4e4e2" r="0.6"/></g></g></g><g><g id="change1_2"><path d="M30.2,22.1c0,0-0.1,0-0.1,0c-0.4,0-0.7-0.3-0.8-0.7l-0.8-2.2c-3-0.5-5.5-2.6-6.5-5.5 c-0.7-2.1-0.5-4.3,0.4-6.2c1-1.9,2.6-3.4,4.7-4.1C31.4,2,36,4.3,37.5,8.6l0,0c1.3,4-0.6,8.3-4.4,10l-2,3.1 C30.8,22,30.5,22.1,30.2,22.1z M29.7,5c-0.6,0-1.3,0.1-1.9,0.3c-1.6,0.5-2.8,1.6-3.5,3.1c-0.7,1.5-0.9,3.1-0.3,4.7 c0.8,2.4,2.9,4,5.4,4.2c0.4,0,0.7,0.3,0.9,0.7l0.3,0.9l1.1-1.6c0.1-0.2,0.3-0.3,0.5-0.4c3-1.2,4.6-4.6,3.6-7.6l0,0 C34.7,6.6,32.3,5,29.7,5z" fill="#e4e4e2"/></g><g><g id="change1_3"><path d="M30.1,15c-0.6,0-1-0.4-1-1v-0.6c0-0.9,0.6-1.8,1.5-2.1c0.6-0.2,1.1-0.9,0.9-1.7c-0.1-0.5-0.6-1-1.1-1.1 c-0.5-0.1-0.9,0-1.3,0.3c-0.3,0.3-0.5,0.7-0.5,1.1c0,0.6-0.4,1-1,1s-1-0.4-1-1c0-1,0.5-2,1.3-2.7c0.8-0.7,1.9-0.9,2.9-0.7 c1.3,0.3,2.4,1.3,2.7,2.7c0.4,1.7-0.6,3.4-2.2,4c-0.1,0-0.2,0.1-0.2,0.2V14C31.1,14.6,30.6,15,30.1,15z" fill="#e4e4e2"/></g><g id="change1_12"><circle cx="30.1" cy="16.2" fill="#e4e4e2" r="0.5"/></g></g></g></g></svg>