<svg xmlns="http://www.w3.org/2000/svg" xmlns:xlink="http://www.w3.org/1999/xlink" fill="#e4e4e2" height="60" preserveAspectRatio="xMidYMid meet" version="1" viewBox="2.0 2.0 60.0 60.0" width="60" zoomAndPan="magnify"><g data-name="04-Schedule" id="change1_1"><path d="M26,22a.99974.99974,0,0,0-1-1H19a.99974.99974,0,0,0-1,1v6a.99974.99974,0,0,0,1,1h6a.99974.99974,0,0,0,1-1Zm-2,5H20V23h4Zm5-6a.99974.99974,0,0,0-1,1v6a.99974.99974,0,0,0,1,1h6a.99974.99974,0,0,0,1-1V22a.99974.99974,0,0,0-1-1Zm5,6H30V23h4ZM16,32a.99974.99974,0,0,0-1-1H9a.99974.99974,0,0,0-1,1v6a.99974.99974,0,0,0,1,1h6a.99974.99974,0,0,0,1-1Zm-2,5H10V33h4Zm12-5a.99974.99974,0,0,0-1-1H19a.99974.99974,0,0,0-1,1v6a.99974.99974,0,0,0,1,1h6a.99974.99974,0,0,0,1-1Zm-2,5H20V33h4Zm-9,4H9a.99974.99974,0,0,0-1,1v6a.99974.99974,0,0,0,1,1h6a.99974.99974,0,0,0,1-1V42A.99974.99974,0,0,0,15,41Zm-1,6H10V43h4Zm11-6H19a.99974.99974,0,0,0-1,1v6a.99974.99974,0,0,0,1,1h6a.99974.99974,0,0,0,1-1V42A.99974.99974,0,0,0,25,41Zm-1,6H20V43h4ZM45,28A17,17,0,1,0,62,45,17.019,17.019,0,0,0,45,28Zm0,32A15,15,0,1,1,60,45,15.01672,15.01672,0,0,1,45,60ZM27,53H7a3.00328,3.00328,0,0,1-3-3V17H50v9a1,1,0,0,0,2,0V12a5.00588,5.00588,0,0,0-5-5H44V5a3,3,0,0,0-6,0V7H30V5a3,3,0,0,0-6,0V7H16V5a3,3,0,0,0-6,0V7H7a5.00588,5.00588,0,0,0-5,5V50a5.00588,5.00588,0,0,0,5,5H27a1,1,0,0,0,0-2ZM40,5a1,1,0,0,1,2,0v5a1,1,0,0,1-2,0ZM26,5a1,1,0,0,1,2,0v5a1,1,0,0,1-2,0ZM12,5a1,1,0,0,1,2,0v5a1,1,0,0,1-2,0ZM7,9h3v1a3,3,0,0,0,6,0V9h8v1a3,3,0,0,0,6,0V9h8v1a3,3,0,0,0,6,0V9h3a3.00328,3.00328,0,0,1,3,3v3H4V12A3.00328,3.00328,0,0,1,7,9ZM44,25V23H40v2.91846a1,1,0,0,1-2,0V22a.99974.99974,0,0,1,1-1h6a.99974.99974,0,0,1,1,1v3a1,1,0,0,1-2,0Zm1,7A13,13,0,1,0,58,45,13.01474,13.01474,0,0,0,45,32Zm1,23.94934V54a1,1,0,0,0-2,0v1.94934A11.01139,11.01139,0,0,1,34.05066,46H36a1,1,0,0,0,0-2H34.05066A11.01139,11.01139,0,0,1,44,34.05066V36a1,1,0,0,0,2,0V34.05066A11.01139,11.01139,0,0,1,55.94934,44H54a1,1,0,0,0,0,2h1.94934A11.01139,11.01139,0,0,1,46,55.94934ZM48.707,47.293A.99989.99989,0,1,1,47.293,48.707l-3-3A1.00012,1.00012,0,0,1,44,45V40a1,1,0,0,1,2,0v4.58594Z" fill="inherit"/></g></svg>