<svg xmlns="http://www.w3.org/2000/svg" xmlns:xlink="http://www.w3.org/1999/xlink" fill="#e4e4e2" height="112.8" preserveAspectRatio="xMidYMid meet" version="1" viewBox="-0.3 -0.1 113.0 112.8" width="113" zoomAndPan="magnify"><g id="change1_1"><path d="M45.493,0.003C20.091,0.281-0.277,21.104,0.003,46.507C0.28,71.906,21.101,92.275,46.505,91.996 c9.381-0.102,18.506-3.073,26.155-8.512l26.272,26.267c3.008,2.969,7.858,2.938,10.827-0.074c2.939-2.979,2.939-7.771,0-10.754 L83.487,72.656c14.724-20.7,9.875-49.42-10.827-64.145C64.729,2.876,55.22-0.104,45.493,0.003z M44.94,7.964 c20.978-0.586,38.461,15.942,39.047,36.924c0.009,0.369,0.017,0.738,0.017,1.106c0.008,20.986-17,38.007-37.984,38.019 C25.033,84.021,8.011,67.017,8.001,46.029c0-0.011,0-0.021,0-0.033C7.978,25.406,24.356,8.54,44.94,7.964z" fill="inherit"/></g><g id="change1_2"><path d="M35.743,17.814c2.08-0.744,4.369,0.336,5.115,2.416c0.74,2.065-0.32,4.342-2.379,5.104 c-8.688,3.162-14.471,11.42-14.471,20.664c0,2.211-1.791,4.002-4,4.002s-4-1.791-4-4.002C16.009,33.39,23.894,22.126,35.743,17.814z" fill="inherit"/></g></svg>