<svg xmlns="http://www.w3.org/2000/svg" xmlns:xlink="http://www.w3.org/1999/xlink" fill="#000000" height="501.4" preserveAspectRatio="xMidYMid meet" version="1" viewBox="46.1 -1.4 411.3 501.4" width="411.3" zoomAndPan="magnify"><g fill="#e4e4e2" id="change1_1"><path d="M 427.570312 370.40625 L 353.078125 443.472656 C 333.605469 462.574219 308.957031 475.253906 283.671875 479.171875 C 248.960938 484.554688 215.902344 474.316406 185.414062 448.734375 C 162.160156 429.21875 146.921875 402.699219 140.128906 369.914062 C 134.964844 345.003906 136.886719 325.644531 136.90625 325.472656 C 136.929688 325.257812 136.945312 325.042969 136.953125 324.828125 C 138.953125 275.339844 161.101562 166.644531 167.84375 134.507812 C 168.113281 133.210938 169.300781 132.355469 170.265625 132.355469 C 170.355469 132.355469 170.445312 132.363281 170.53125 132.382812 C 189.367188 135.796875 202.175781 152.574219 200.988281 172.277344 L 195.589844 261.96875 C 195.339844 266.144531 197.796875 270.015625 201.683594 271.5625 C 205.574219 273.117188 210.019531 271.992188 212.710938 268.785156 L 391.1875 56.082031 C 398.851562 46.558594 414.003906 43.9375 423.152344 52.308594 C 431.753906 59.960938 431.96875 74.273438 423.632812 84.207031 L 317.0625 211.210938 C 313.617188 215.316406 314.152344 221.4375 318.257812 224.882812 C 322.34375 228.3125 328.472656 227.808594 331.929688 223.6875 L 351.109375 200.832031 C 359.570312 191.488281 373.109375 189.980469 381.964844 197.40625 C 391.03125 205.015625 391.644531 219.261719 383.335938 229.164062 L 357.542969 259.90625 C 354.097656 264.011719 354.632812 270.132812 358.738281 273.578125 C 362.839844 277.019531 368.964844 276.488281 372.40625 272.382812 C 380.71875 262.480469 394.855469 260.613281 403.925781 268.21875 C 413.316406 275.882812 413.222656 290.96875 405.296875 299.976562 L 384.542969 324.707031 C 380.796875 329.339844 380.632812 336.9375 385.980469 340.4375 C 389.5625 342.890625 394.335938 342.675781 397.675781 339.898438 C 406.21875 332.804688 418.101562 332.417969 425.921875 338.980469 C 434.890625 346.503906 435.589844 360.519531 427.570312 370.40625 Z M 438.398438 324.113281 C 432.414062 319.09375 425.273438 316.132812 417.847656 315.210938 L 420.164062 312.449219 C 427.449219 303.769531 431.117188 292.898438 430.492188 281.84375 C 429.855469 270.5625 424.847656 260.441406 416.398438 253.351562 C 410.371094 248.292969 403.230469 245.359375 395.84375 244.453125 L 398.203125 241.640625 C 405.488281 232.957031 409.15625 222.085938 408.53125 211.03125 C 407.894531 199.75 402.886719 189.632812 394.4375 182.539062 C 388.410156 177.480469 381.3125 174.527344 373.964844 173.59375 L 438.5 96.683594 C 453.519531 78.785156 452.421875 52.375 436.058594 37.808594 C 419.117188 22.15625 390.660156 25.800781 376.320312 43.605469 L 216.730469 233.804688 L 220.363281 173.445312 C 222.148438 143.777344 202.648438 118.476562 173.992188 113.28125 C 162.554688 111.210938 151.277344 118.945312 148.847656 130.523438 C 140.125 172.109375 119.644531 274.058594 117.574219 323.757812 C 117.285156 326.773438 115.671875 347.050781 120.980469 373.164062 C 128.496094 410.109375 146.464844 441.382812 172.941406 463.601562 C 201.789062 487.808594 232.875 500 265.605469 500 C 272.546875 500 279.5625 499.449219 286.644531 498.355469 C 315.90625 493.8125 344.324219 479.246094 366.667969 457.328125 L 441.523438 383.90625 C 441.75 383.6875 441.960938 383.453125 442.164062 383.214844 C 457.351562 365.113281 455.660156 338.601562 438.398438 324.113281" fill="inherit"/><path d="M 275.167969 51.308594 L 253.269531 62.941406 C 248.535156 65.460938 246.738281 71.332031 249.253906 76.066406 C 251.777344 80.847656 257.734375 82.574219 262.375 80.082031 L 301.6875 59.195312 C 306.792969 57.234375 309.183594 50.433594 306.445312 45.632812 L 284.699219 5.117188 C 282.167969 0.394531 276.285156 -1.378906 271.5625 1.15625 C 266.839844 3.6875 265.066406 9.570312 267.601562 14.296875 L 276.667969 31.191406 C 215.519531 9.320312 161.691406 11.425781 125.601562 17.777344 C 81.011719 25.628906 53.492188 41.199219 52.34375 41.855469 C 47.695312 44.523438 46.085938 50.453125 48.75 55.101562 C 51.414062 59.75 57.34375 61.359375 61.996094 58.695312 C 62.246094 58.550781 87.683594 44.160156 128.96875 36.890625 C 163.640625 30.785156 215.875 28.886719 275.167969 51.308594" fill="inherit"/></g></svg>